# xmcd
#
# Track frame offsets: 
#        150
#        23430
#        45847
#        65167
#        86817
#        110620
#        139420
#        159810
#        176412
#        199117
#        218582
#        253450
#        270587
#        299872
#        319725
#
# Disc length: 4549 seconds
#
# Revision: 18
# Processed by: cddbd v1.5.2PL0 Copyright (c) Steve Scherf et al.
# Submitted via: ExactAudioCopy v1.3
#
DISCID=df11c30f
DTITLE=Lenny Kravitz - 5
DYEAR=1998
DGENRE=Rock
TTITLE0=Live
TTITLE1=Supersoulfighter
TTITLE2=I belong to you
TTITLE3=Black velveteen
TTITLE4=If you can't say no
TTITLE5=Thinking of you
TTITLE6=Take time
TTITLE7=Fly away
TTITLE8=It's your life
TTITLE9=Straight cold player
TTITLE10=Little girl's eyes
TTITLE11=You'r my flavor
TTITLE12=Can we find a reason?
TTITLE13=American woman
TTITLE14=Without you
EXTD=YEAR: 1999
EXTT0=
EXTT1=
EXTT2=
EXTT3=
EXTT4=
EXTT5=
EXTT6=
EXTT7=
EXTT8=
EXTT9=
EXTT10=
EXTT11=
EXTT12=
EXTT13=
EXTT14=
PLAYORDER=
